<mxfile host="app.diagrams.net" modified="2023-03-15T04:25:57.381Z" agent="5.0 (Windows NT 10.0; Win64; x64) AppleWebKit/537.36 (KHTML, like Gecko) Chrome/111.0.0.0 Safari/537.36" etag="r4pLK8BrGjaxbBqfMPyr" version="21.0.6" type="github">
  <diagram name="第 1 页" id="3UjdBd2KKpV0JYQb_SGN">
    <mxGraphModel dx="1454" dy="781" grid="1" gridSize="10" guides="1" tooltips="1" connect="1" arrows="1" fold="1" page="1" pageScale="1" pageWidth="827" pageHeight="1169" math="0" shadow="0">
      <root>
        <mxCell id="0" />
        <mxCell id="1" parent="0" />
        <mxCell id="ZT8GPRA4VV5K2qkBkmNg-31" value="" style="rounded=1;whiteSpace=wrap;html=1;" parent="1" vertex="1">
          <mxGeometry x="281.5" y="330" width="610" height="70" as="geometry" />
        </mxCell>
        <mxCell id="ZT8GPRA4VV5K2qkBkmNg-24" value="" style="rounded=1;whiteSpace=wrap;html=1;" parent="1" vertex="1">
          <mxGeometry x="280" y="529" width="610" height="70" as="geometry" />
        </mxCell>
        <mxCell id="ZT8GPRA4VV5K2qkBkmNg-23" value="" style="rounded=1;whiteSpace=wrap;html=1;" parent="1" vertex="1">
          <mxGeometry x="281.5" y="429" width="610" height="70" as="geometry" />
        </mxCell>
        <mxCell id="ZT8GPRA4VV5K2qkBkmNg-21" value="" style="rounded=1;whiteSpace=wrap;html=1;" parent="1" vertex="1">
          <mxGeometry x="280" y="227" width="610" height="70" as="geometry" />
        </mxCell>
        <mxCell id="ZT8GPRA4VV5K2qkBkmNg-1" value="访问层" style="rounded=1;whiteSpace=wrap;html=1;" parent="1" vertex="1">
          <mxGeometry x="130" y="244" width="110" height="40" as="geometry" />
        </mxCell>
        <mxCell id="ZT8GPRA4VV5K2qkBkmNg-3" value="数据层" style="rounded=1;whiteSpace=wrap;html=1;" parent="1" vertex="1">
          <mxGeometry x="130" y="444" width="110" height="40" as="geometry" />
        </mxCell>
        <mxCell id="ZT8GPRA4VV5K2qkBkmNg-4" value="基础设施" style="rounded=1;whiteSpace=wrap;html=1;" parent="1" vertex="1">
          <mxGeometry x="130" y="544" width="110" height="40" as="geometry" />
        </mxCell>
        <mxCell id="ZT8GPRA4VV5K2qkBkmNg-5" value="用户请求" style="rounded=1;whiteSpace=wrap;html=1;" parent="1" vertex="1">
          <mxGeometry x="342" y="244" width="110" height="40" as="geometry" />
        </mxCell>
        <mxCell id="ZT8GPRA4VV5K2qkBkmNg-6" value="前后端通信" style="rounded=1;whiteSpace=wrap;html=1;" parent="1" vertex="1">
          <mxGeometry x="750" y="345" width="110" height="40" as="geometry" />
        </mxCell>
        <mxCell id="ZT8GPRA4VV5K2qkBkmNg-7" value="页面渲染" style="rounded=1;whiteSpace=wrap;html=1;" parent="1" vertex="1">
          <mxGeometry x="600" y="345" width="110" height="40" as="geometry" />
        </mxCell>
        <mxCell id="ZT8GPRA4VV5K2qkBkmNg-13" value="用户数据" style="rounded=1;whiteSpace=wrap;html=1;" parent="1" vertex="1">
          <mxGeometry x="342" y="444" width="110" height="40" as="geometry" />
        </mxCell>
        <mxCell id="ZT8GPRA4VV5K2qkBkmNg-14" value="检测工具" style="rounded=1;whiteSpace=wrap;html=1;" parent="1" vertex="1">
          <mxGeometry x="526.5" y="444" width="110" height="40" as="geometry" />
        </mxCell>
        <mxCell id="ZT8GPRA4VV5K2qkBkmNg-15" value="漏洞验证代码" style="rounded=1;whiteSpace=wrap;html=1;" parent="1" vertex="1">
          <mxGeometry x="704" y="444" width="110" height="40" as="geometry" />
        </mxCell>
        <mxCell id="ZT8GPRA4VV5K2qkBkmNg-16" value="Docker" style="rounded=1;whiteSpace=wrap;html=1;" parent="1" vertex="1">
          <mxGeometry x="294.5" y="544" width="110" height="40" as="geometry" />
        </mxCell>
        <mxCell id="ZT8GPRA4VV5K2qkBkmNg-17" value="服务器" style="rounded=1;whiteSpace=wrap;html=1;" parent="1" vertex="1">
          <mxGeometry x="413.5" y="544" width="110" height="40" as="geometry" />
        </mxCell>
        <mxCell id="ZT8GPRA4VV5K2qkBkmNg-18" value="中间件" style="rounded=1;whiteSpace=wrap;html=1;" parent="1" vertex="1">
          <mxGeometry x="531.5" y="544" width="110" height="40" as="geometry" />
        </mxCell>
        <mxCell id="ZT8GPRA4VV5K2qkBkmNg-19" value="数据库" style="rounded=1;whiteSpace=wrap;html=1;" parent="1" vertex="1">
          <mxGeometry x="650.5" y="544" width="110" height="40" as="geometry" />
        </mxCell>
        <mxCell id="ZT8GPRA4VV5K2qkBkmNg-20" value="Harbor" style="rounded=1;whiteSpace=wrap;html=1;" parent="1" vertex="1">
          <mxGeometry x="767.5" y="544" width="110" height="40" as="geometry" />
        </mxCell>
        <mxCell id="ZT8GPRA4VV5K2qkBkmNg-25" value="" style="endArrow=none;dashed=1;html=1;dashPattern=1 3;strokeWidth=2;rounded=0;" parent="1" edge="1">
          <mxGeometry width="50" height="50" relative="1" as="geometry">
            <mxPoint x="130" y="213" as="sourcePoint" />
            <mxPoint x="910" y="213" as="targetPoint" />
          </mxGeometry>
        </mxCell>
        <mxCell id="ZT8GPRA4VV5K2qkBkmNg-27" value="" style="endArrow=none;dashed=1;html=1;dashPattern=1 3;strokeWidth=2;rounded=0;" parent="1" edge="1">
          <mxGeometry width="50" height="50" relative="1" as="geometry">
            <mxPoint x="130" y="414" as="sourcePoint" />
            <mxPoint x="910" y="414" as="targetPoint" />
          </mxGeometry>
        </mxCell>
        <mxCell id="ZT8GPRA4VV5K2qkBkmNg-28" value="" style="endArrow=none;dashed=1;html=1;dashPattern=1 3;strokeWidth=2;rounded=0;" parent="1" edge="1">
          <mxGeometry width="50" height="50" relative="1" as="geometry">
            <mxPoint x="130" y="514" as="sourcePoint" />
            <mxPoint x="910" y="514" as="targetPoint" />
          </mxGeometry>
        </mxCell>
        <mxCell id="ZT8GPRA4VV5K2qkBkmNg-29" value="" style="endArrow=none;dashed=1;html=1;dashPattern=1 3;strokeWidth=2;rounded=0;" parent="1" edge="1">
          <mxGeometry width="50" height="50" relative="1" as="geometry">
            <mxPoint x="130" y="614" as="sourcePoint" />
            <mxPoint x="910" y="614" as="targetPoint" />
          </mxGeometry>
        </mxCell>
        <mxCell id="ZT8GPRA4VV5K2qkBkmNg-30" value="" style="endArrow=none;dashed=1;html=1;dashPattern=1 3;strokeWidth=2;rounded=0;" parent="1" edge="1">
          <mxGeometry width="50" height="50" relative="1" as="geometry">
            <mxPoint x="130" y="314" as="sourcePoint" />
            <mxPoint x="910" y="314" as="targetPoint" />
          </mxGeometry>
        </mxCell>
        <mxCell id="ZT8GPRA4VV5K2qkBkmNg-32" value="业务层" style="rounded=1;whiteSpace=wrap;html=1;" parent="1" vertex="1">
          <mxGeometry x="131.5" y="345" width="110" height="40" as="geometry" />
        </mxCell>
        <mxCell id="ZT8GPRA4VV5K2qkBkmNg-33" value="运行隔离" style="rounded=1;whiteSpace=wrap;html=1;" parent="1" vertex="1">
          <mxGeometry x="306.5" y="345" width="110" height="40" as="geometry" />
        </mxCell>
        <mxCell id="ZT8GPRA4VV5K2qkBkmNg-34" value="数据传输" style="rounded=1;whiteSpace=wrap;html=1;" parent="1" vertex="1">
          <mxGeometry x="452" y="345" width="110" height="40" as="geometry" />
        </mxCell>
        <mxCell id="ZT8GPRA4VV5K2qkBkmNg-35" value="配置服务" style="rounded=1;whiteSpace=wrap;html=1;" parent="1" vertex="1">
          <mxGeometry x="700" y="242" width="110" height="40" as="geometry" />
        </mxCell>
        <mxCell id="ZT8GPRA4VV5K2qkBkmNg-36" value="检索服务" style="rounded=1;whiteSpace=wrap;html=1;" parent="1" vertex="1">
          <mxGeometry x="523.5" y="242" width="110" height="40" as="geometry" />
        </mxCell>
      </root>
    </mxGraphModel>
  </diagram>
</mxfile>
